<svg width="462" height="521" viewBox="0 0 462 521" fill="none" xmlns="http://www.w3.org/2000/svg">
<path d="M350.757 55.1195C351.242 57.7548 351.638 59.9116 352.109 62.5122C359.328 61.1599 366.277 59.8977 373.205 58.5523C396.673 54.01 420.134 49.426 443.602 44.8767C449.517 43.7324 451.667 45.1679 452.707 50.8892C453.2 53.6146 453.72 56.3401 454.157 59.0794C454.871 63.5386 453.262 65.9866 448.748 66.8534C442.797 67.9977 436.806 68.9408 430.828 69.9603C404.357 74.4749 377.886 78.9758 351.423 83.532C349.509 83.8649 346.873 83.206 346.208 85.9245C345.417 89.1562 345.056 92.5266 347.477 95.3214C348.475 96.4795 349.848 97.3256 351.083 98.2687C353.704 100.259 356.437 102.111 358.968 104.205C367.616 111.376 370.237 120.474 366.998 131.23C364.911 138.158 360.5 143.387 355.098 147.916C350.479 151.786 349.966 156.592 351.52 162.042C352.317 164.844 353.989 166.217 356.79 167.036C363.267 168.929 369.779 170.843 375.993 173.443C381.229 175.635 386.194 178.575 391.007 181.62C395.016 184.151 398.032 187.778 399.613 192.404C399.724 192.73 399.711 193.187 399.932 193.381C405.369 198.187 403.781 204.373 402.311 209.824C387.672 264.035 358.413 308.162 311.519 339.889C307.524 342.593 303.072 344.618 298.87 347.018C296.657 348.28 294.521 349.667 291.318 351.63C302.441 353.745 310.541 359.272 317.76 365.916C322.296 370.091 326.082 375.139 329.855 380.07C331.395 382.081 332.504 383.843 335.41 383.863C337.976 383.884 339.924 385.16 340.777 387.948C341.117 389.051 342.262 390.306 343.336 390.729C356.055 395.708 362.317 405.757 365.292 418.399C365.847 420.743 366.249 423.198 366.201 425.591C366.104 430.022 364.495 433.642 359.932 435.432C358.822 435.868 357.602 436.978 357.186 438.067C355.355 442.845 351.721 444.433 346.991 444.599C345.153 444.662 343.177 444.752 341.52 445.432C335.819 447.769 331.429 446.68 328.163 441.396C326.72 439.065 325.874 436.375 325.077 434.585C322.102 432.97 318.953 432.186 317.393 430.175C315.618 427.886 314.778 424.564 314.404 421.582C313.676 415.716 313.953 409.828 316.228 404.19C316.575 403.323 316.796 401.977 316.367 401.298C314.064 397.615 315.09 394.37 317.372 391.436C312.497 379.827 304.085 372.539 291.581 368.114C291.969 375.41 292.309 381.873 292.649 388.329C282.684 394.869 271.9 398.815 260.381 400.923C255.103 401.887 249.819 402.851 244.569 403.947C243.487 404.176 242.142 404.717 241.566 405.563C238.161 410.535 234.943 415.639 231.407 421.097C236.407 424.752 241.906 425.868 246.268 428.261C249.923 426.534 253.023 424.509 256.428 423.607C260.298 422.581 263.356 424.981 265.547 427.63C268.404 427.054 270.922 426.652 273.384 426.021C274.667 425.688 275.908 425.071 277.052 424.384C284.792 419.717 293.405 421.52 298.419 429.051C302.836 435.695 303.814 442.762 300.784 450.321C300.18 451.819 299.945 453.677 300.194 455.265C301.956 466.243 301.179 477.194 298.363 487.763C295.264 499.386 288.883 509.275 278.8 516.362C272.94 520.482 268.973 520.454 263.03 516.647C261.352 515.572 259.431 514.656 257.503 514.219C246.247 511.674 241.337 502.645 240.54 493.754C239.611 483.38 242.53 474.233 249.285 466.299C249.84 465.647 250.339 464.94 250.838 464.239C250.928 464.121 250.915 463.92 251.005 463.463C250.124 463.13 249.215 462.7 248.258 462.436C243.009 460.994 239.784 457.547 239.305 452.2C239.014 448.975 237.683 447.131 234.916 445.91C230.824 444.1 226.767 442.221 222.682 440.383C220.81 439.544 219.284 440.175 218.098 441.687C211.462 450.134 204.846 458.594 198.216 467.048C196.926 468.692 196.982 470.411 197.405 472.423C198.597 478.095 198.348 483.518 193.972 486.937C193.972 492.61 194.367 497.617 193.875 502.534C193.167 509.635 188.105 514.844 181.191 516.667C179.374 517.146 177.55 517.756 175.872 518.602C168.729 522.188 162.05 521.48 156.246 516.071C153.853 513.845 151.28 511.473 149.852 508.637C148.111 505.183 145.58 503.449 142.175 502.381C130.281 498.643 121.446 490.869 113.866 481.278C106.543 472.006 104.331 461.479 105.433 450.009C106.203 442.027 110.427 436.506 117.681 433.282C128.707 428.379 139.248 430.293 148.756 436.777C156.461 442.027 163.756 448.053 167.973 457.256C170.49 456.951 173.028 456.687 175.546 456.292C176.149 456.195 176.822 455.744 177.217 455.259C184.783 446.021 192.314 436.749 200.269 426.978C195.31 422.512 190.775 418.122 185.698 414.287C183.084 412.31 180.435 410.285 178.243 407.879C176.198 405.639 173.958 404.522 171.017 404.55C155.067 404.696 140.94 398.545 127.008 391.776C121.398 389.051 120.392 386.485 122.209 380.493C122.757 378.697 123.249 376.88 123.929 374.501C117.334 375.021 111.21 375.729 105.073 375.916C98.8868 376.103 92.6801 375.77 85.8075 375.659C84.0461 378.517 82.3956 382.462 77.8878 383.759C73.2206 385.098 69.9473 382.345 67.208 380.743C60.7655 382.164 55.0858 383.558 49.3436 384.647C42.8456 385.874 36.5487 384.487 30.4945 382.248C28.1158 381.367 25.9035 379.834 23.8785 378.253C20.4111 375.555 19.1628 371.977 20.4249 367.622C20.7439 366.519 21.2294 365.021 20.7578 364.217C17.5677 358.71 18.8576 353.918 23.2683 348.987C21.3404 348.537 19.8632 348.301 18.4623 347.829C14.0517 346.359 9.52322 345.132 5.33451 343.176C1.65206 341.456 -0.37294 338.176 0.0570259 333.849C0.514732 329.292 3.43434 326.484 7.47048 325.423C10.7091 324.57 14.3846 324.251 17.644 324.868C23.0533 325.894 28.2961 327.808 33.5805 329.459C36.0355 330.229 38.4072 331.269 40.9524 332.24C41.4794 331.518 41.8886 330.998 42.2492 330.45C45.6404 325.291 49.7251 323.932 55.6267 326.081C63.7614 329.05 69.9751 334.424 74.4967 341.692C76.1125 344.293 77.8878 346.061 80.9878 346.942C85.329 348.183 87.4927 351.845 88.7826 356.137C101.189 357.185 113.374 356.706 126.231 354.619C125.24 353.384 124.719 352.351 123.88 351.775C122.32 350.7 120.635 349.75 118.894 349.001C100.093 340.853 84.7604 327.982 70.8697 313.307C43.7471 284.659 26.5901 250.699 18.0047 212.314C16.7772 206.835 17.8313 201.724 21.1323 197.071C24.5235 192.286 29.0312 188.825 33.9897 185.906C45.5849 179.068 58.1857 174.636 71.1332 171.342C83.5467 168.187 96.1198 165.662 108.672 163.055C111.307 162.507 113.554 161.696 115.642 159.969C134.408 144.428 155.816 134.719 180.116 132.278C189.374 131.348 198.799 131.986 208.147 131.931C209.159 131.931 210.172 132.056 211.482 132.139C211.697 130.544 211.801 129.212 212.065 127.909C212.641 125.038 212.627 121.771 214.062 119.406C216.781 114.926 216.025 111.341 212.516 107.291C208.584 107.936 204.36 108.734 200.102 109.288C197.203 109.663 194.249 109.926 191.33 109.829C188.153 109.718 185.643 108.082 184.603 104.968C183.535 101.771 184.942 99.0316 187.335 97.1175C189.02 95.7721 191.219 94.9469 193.313 94.2742C195.421 93.5946 197.675 93.3796 200.192 92.9011C199.887 91.8123 199.652 91.0495 199.464 90.2727C198.174 85.0369 200.033 81.4654 205.13 79.7871C220.436 74.7524 235.762 69.7939 251.074 64.7799C315.777 43.6075 380.473 22.4283 445.176 1.25589C446.653 0.770448 448.186 -0.0895185 449.642 0.00757063C451.397 0.1324 453.796 0.583225 454.677 1.79684C457.818 6.11731 460.8 10.6319 461.432 16.2215C461.855 19.9386 461.48 20.6667 457.77 21.5891C448.193 23.9608 438.636 26.4574 429.011 28.635C416.632 31.4298 404.752 35.6948 392.88 40.0915C380.21 44.7865 367.435 49.1763 354.703 53.7048C353.579 54.1071 352.456 54.5301 350.764 55.1542L350.757 55.1195ZM394.919 209.734C387.914 215.386 380.189 219.568 372.019 222.966C359.987 227.966 347.504 231.558 334.827 234.457C292.58 244.117 249.639 247.835 206.427 248.889C183.555 249.443 160.691 248.972 137.854 247.231C116.404 245.595 95.0796 243.174 74.0459 238.583C58.2689 235.137 42.7624 230.844 28.8994 222.092C28.5943 221.898 28.0672 222.071 27.3807 222.071C27.6581 223.167 27.8453 223.985 28.0811 224.797C38.324 259.79 56.1676 290.228 82.4718 315.61C103.186 335.596 127.521 349.653 154.741 358.44C167.896 362.691 181.704 364.799 195.608 365.534C227.807 367.226 258.397 360.888 287.136 346.331C331.408 323.904 362.72 289.125 383.226 244.27C388.268 233.243 392.346 221.863 394.919 209.741V209.734ZM128.021 384.82C139.921 390.771 151.87 396.02 165.053 398.004C179.152 400.126 193.348 400.216 207.55 400.14C228.965 400.029 249.985 396.88 270.644 391.457C275.083 390.292 279.209 387.844 283.349 385.722C284.327 385.223 285.34 383.655 285.353 382.566C285.423 374.258 285.333 365.943 285.111 357.635C285.041 354.993 283.578 354.314 281.303 355.555C279.493 356.54 277.864 357.941 275.977 358.703C258.855 365.624 241.088 370.049 222.689 371.672C193.923 374.21 166.045 370.299 139.137 359.716C137.924 359.237 136.627 359.002 135.385 358.655C132.896 367.497 130.524 375.951 128.027 384.813L128.021 384.82ZM168.347 493.089C165.816 496.265 164.006 498.567 162.161 500.835C160.421 502.978 158.971 505.655 155.15 504.989C156.828 498.976 161.974 495.599 164.616 490.322C162.036 488.477 159.519 486.93 157.328 485.023C155.309 483.276 151.322 483.713 151.128 479.704C153.319 478.199 155.247 479.038 157.029 480.093C165.157 484.885 172.584 490.523 177.945 498.449C180.213 501.806 181.898 505.384 180.747 509.663C180.546 510.405 180.719 511.244 180.719 512.534C185.865 510.585 188.708 507.257 189.804 502.34C191.108 496.501 190.289 491.029 187.314 485.793C186.787 484.857 187.321 483.317 187.37 482.062C188.452 482.312 189.526 482.575 190.615 482.811C190.934 482.88 191.274 482.873 191.593 482.901C195.047 477.943 194.638 472.166 190.206 468.664C187.099 466.209 183.687 464.101 180.248 462.124C177.113 460.321 173.729 459.96 170.4 461.77C170.31 462.88 170.358 463.948 170.088 464.919C169.935 465.474 169.214 466.299 168.812 466.264C168.084 466.202 167.342 465.668 166.738 465.169C166.378 464.87 166.232 464.267 166.086 463.775C163.292 454.274 156.343 448.032 149.061 442.047C144.103 437.97 138.381 435.563 132.05 434.925C125.406 434.26 119.338 436.035 114.234 440.494C113.45 441.181 112.999 442.256 112.146 443.518C119.539 444.489 125.919 446.507 131.155 451.167C137.833 457.11 142.695 464.503 147.445 471.965C148.416 473.49 148.749 475.099 146.669 477.09C145.448 475.689 144.29 474.545 143.347 473.241C140.607 469.447 138.152 465.446 135.219 461.812C132.736 458.733 130.011 455.73 126.932 453.268C122.112 449.405 116.425 447.734 109.809 447.984C108.734 456.68 109.04 464.732 113.027 472.166C117.431 480.377 123.679 487.111 131.259 492.499C136.516 496.237 142.612 498.172 148.361 500.176C150.927 498.005 153.083 496.189 155.608 494.053C157.862 499.226 152.882 500.551 152.002 504.004C154.033 508.664 157.612 512.451 162.016 515.232C168.43 519.275 175.879 515.662 176.648 508.262C176.849 506.348 176.295 504.032 175.296 502.381C173.444 499.316 171.017 496.605 168.34 493.109L168.347 493.089ZM88.956 234.811C92.1946 227.89 94.8299 221.655 97.9575 215.684C109.234 194.151 124.761 176.557 146.454 165.024C171.426 151.744 197.925 149.733 225.269 155.101C248.869 159.74 270.388 169.491 290.742 182.064C292.33 183.048 293.96 183.964 295.472 184.858C298.426 183.458 301.026 182.223 304.189 180.725C300.68 178.055 297.628 175.649 294.494 173.353C277.718 161.078 259.216 152.119 239.604 145.523C219.478 138.755 198.798 136.12 177.605 139.129C151.787 142.791 130.08 154.705 111.543 172.632C94.9755 188.652 83.2208 207.973 74.1152 228.992C73.8032 229.707 73.6853 230.504 73.3385 231.759C78.824 232.834 83.8519 233.819 88.956 234.818V234.811ZM288.918 189.248C287.926 188.416 287.344 187.785 286.636 187.355C261.345 171.89 234.555 160.759 204.506 159.22C179.013 157.909 155.774 164.282 135.448 180.045C117.431 194.019 105.475 212.439 97.0491 233.354C96.8063 233.965 96.7439 234.644 96.4249 236.059C102.195 236.78 107.715 237.474 112.653 238.091C117.119 231.184 120.843 224.922 125.059 219.013C136.384 203.132 150.24 190.011 167.813 181.176C186.08 171.994 205.276 169.137 225.332 173.471C242.301 177.14 256.983 185.378 270.034 196.675C271.567 198.007 273.106 199.332 274.854 200.843C279.674 196.87 284.161 193.173 288.911 189.255L288.918 189.248ZM363.982 218.125C357.692 211.149 351.686 203.999 345.14 197.383C340.5 192.702 334.876 189.179 328.399 187.306C319.966 184.872 311.484 184.969 303.565 188.589C298.28 191.003 293.516 194.657 288.752 198.076C284.958 200.795 281.56 204.054 277.891 206.967C271.9 211.724 265.658 216.1 258.37 218.673C250.068 221.607 242.683 220.213 236.448 213.784C234.278 211.544 232.204 209.207 229.95 207.05C224.818 202.14 218.743 200.081 211.815 202.099C207.696 203.305 203.507 204.734 199.825 206.877C186.863 214.429 177.529 225.386 171.204 238.937C170.823 239.755 170.851 240.768 170.587 242.28C174.498 242.28 177.966 242.085 181.392 242.335C184.623 242.578 186.898 241.614 189.006 239.055C193.889 233.139 199.728 228.264 206.351 224.318C217.266 217.813 228.106 216.655 238.966 224.367C244.021 227.959 249.673 228.472 255.353 226.773C260.97 225.095 266.553 223.084 271.83 220.546C280.249 216.489 288.467 211.988 296.657 207.48C310.86 199.664 325.493 199.852 340.403 204.9C346.117 206.835 350.909 210.157 354.481 215.122C355.188 216.107 355.986 217.023 356.797 217.924C358.596 219.935 360.988 219.998 363.975 218.111L363.982 218.125ZM248.182 457.873C252.898 459.711 257.01 459.53 261.033 457.11C262.35 456.32 264.133 455.515 265.159 457.325C266.269 459.281 264.445 459.995 263.058 460.723C262.905 460.806 262.753 460.883 262.6 460.966C250.485 467.963 243.862 478.088 244.625 492.444C245.152 502.381 251.462 511.154 263.765 510.35C268.987 510.01 273.127 507.319 275.984 503.345C283.453 492.957 289.272 481.778 289.188 468.497C289.14 460.911 288.932 453.317 288.537 445.737C288.176 438.76 281.671 431.548 275.09 430.411C270.09 429.544 267.961 431.187 267.558 436.181C267.461 437.38 267.42 438.615 267.115 439.773C266.775 441.077 266.373 442.845 264.549 442.242C263.841 442.006 263.384 440.404 263.203 439.364C263.03 438.379 263.578 437.283 263.446 436.284C263.196 434.433 263.023 432.429 262.198 430.813C259.965 426.451 255.651 426.527 252.496 431.229C254.417 430.827 255.984 430.494 257.468 430.182C262.558 438.948 260.325 445.64 248.182 457.887V457.873ZM103.325 171.307C101.501 171.307 100.655 171.169 99.8716 171.328C85.433 174.241 71.0153 177.376 57.2217 182.611C49.9678 185.365 42.908 188.763 36.0632 192.431C32.7969 194.179 29.8981 196.953 27.4362 199.782C23.934 203.798 24.2045 207.938 27.561 212.022C28.4348 213.084 29.4126 214.117 30.5153 214.935C41.0217 222.737 53.0608 226.863 65.717 229.464C65.8557 229.492 66.0291 229.36 66.7711 229.082C75.4745 208.312 87.0766 188.784 103.325 171.307ZM351.658 223.257C347.712 216.149 344.134 213.014 337.241 210.816C324.148 206.648 311.408 206.766 299.05 213.694C290.291 218.604 281.435 223.396 272.33 227.612C266.567 230.282 260.346 232.051 254.195 233.743C248.05 235.435 242.177 234.02 236.746 230.768C235.408 229.963 234.063 229.18 232.731 228.368C227.294 225.067 221.656 224.79 215.803 227.134C209.104 229.818 203.334 233.881 198.223 238.923C197.453 239.686 196.919 240.685 195.796 242.245C198.493 242.245 200.366 242.266 202.238 242.245C225.644 241.981 248.98 240.664 272.246 238.028C285.284 236.551 298.447 236.565 311.255 232.758C320.014 230.157 329.238 229.173 338.198 227.203C342.719 226.204 347.109 224.623 351.665 223.271L351.658 223.257ZM269.299 204.623C264.909 201.142 260.887 197.619 256.532 194.56C242.475 184.692 227.003 178.735 209.652 178.229C190.934 177.681 174.2 183.527 159.02 194.123C143.09 205.24 131.093 219.873 121.599 236.676C121.301 237.203 121.266 237.883 120.94 239.152C129.179 239.818 137.043 240.449 145.372 241.128C145.601 238.722 145.587 236.829 145.982 235.019C147.334 228.784 148.146 222.314 150.4 216.412C157.688 197.341 173.805 186.675 194.221 186.599C208.903 186.544 222.128 191.384 234.416 198.916C240.297 202.522 245.706 206.904 251.234 211.072C252.849 212.286 254.236 213.285 256.365 212.404C260.845 210.545 265.187 208.5 269.306 204.637L269.299 204.623ZM191.85 102.055C192.106 102.783 192.12 103.012 192.217 103.068C192.522 103.22 192.848 103.345 193.181 103.407C193.521 103.47 193.882 103.518 194.215 103.463C235.186 96.5281 276.158 89.6347 317.115 82.6304C360.292 75.2447 403.455 67.762 446.625 60.3138C446.778 60.2861 446.931 60.1335 447.035 60.0017C447.139 59.87 447.18 59.6966 447.471 59.0655C447.021 56.8533 446.494 54.2319 445.925 51.4371C444.351 51.5966 443.324 51.6244 442.333 51.8116C427.034 54.7798 411.736 57.7895 396.437 60.7576C345.604 70.626 294.757 80.4251 243.938 90.3768C227.634 93.5669 211.406 97.1175 195.151 100.564C193.972 100.814 192.897 101.57 191.843 102.062L191.85 102.055ZM44.8082 365.687C46.32 372.289 43.0051 376.928 36.5487 376.304C35.5431 376.207 34.6208 375.236 33.6637 374.668C34.4196 373.884 35.0507 372.865 35.9592 372.372C36.8191 371.908 38.0258 372.15 38.9828 371.81C41.0009 371.096 41.7221 369.432 40.5917 367.733C38.6708 364.841 35.9939 362.968 32.3461 363.287C28.8301 363.599 26.1116 365.34 24.5998 368.593C23.6219 370.694 23.9895 372.865 25.7995 374.245C28.1019 375.992 30.5361 377.844 33.2199 378.759C42.0342 381.769 50.9595 381.388 59.6836 378.232C71.7574 373.87 78.1306 360.028 73.179 348.141C69.4966 339.306 62.9222 333.03 53.7334 329.854C49.1703 328.28 46.1674 329.861 45.4115 334.667C44.7666 338.779 42.7416 341.671 39.607 344.071C38.65 344.806 37.7068 345.603 36.944 346.526C34.9467 348.946 35.661 351.193 38.7401 351.886C42.6653 352.774 46.2715 351.484 49.7181 349.743C51.1051 349.043 52.3326 348.01 53.7473 347.413C54.3645 347.157 55.5989 347.358 55.9804 347.822C56.3826 348.315 56.4034 349.549 56.0497 350.132C55.3632 351.262 54.2952 352.164 53.352 353.211C54.3853 357.039 56.9998 359.126 60.2662 360.597C61.3688 361.089 62.5755 361.394 63.5949 362.011C64.0734 362.303 64.6005 363.267 64.4479 363.69C64.1983 364.383 63.4146 365.361 62.8529 365.361C61.5283 365.361 59.968 365.201 58.9069 364.501C55.5989 362.31 52.4713 359.834 49.5586 357.677C48.1439 360.063 46.5905 362.684 44.8082 365.68V365.687ZM345.646 440.203C352.366 440.12 353.385 439.01 352.907 432.595C352.796 431.118 352.102 429.447 354.391 428.469C355.563 429.433 356.818 430.459 358.011 431.444C361.381 429.377 362.414 427.748 362.04 424.315C361.242 416.978 359.093 410.043 354.516 404.169C351.013 399.661 346.95 395.694 340.424 394.647C337.074 404.162 329.772 406.679 320.833 405.313C318.322 410.195 317.455 420.133 318.988 424.884C319.557 426.638 320.292 428.275 322.885 428.732C322.74 427.47 322.747 426.624 322.532 425.841C322.116 424.315 321.394 422.546 323.454 421.901C325.507 421.257 326.034 423.164 326.512 424.606C327.712 428.212 328.641 431.916 330.008 435.452C330.791 437.491 331.901 439.606 333.426 441.111C336.152 443.781 339.224 442.859 340.59 439.211C341.131 437.769 341.159 436.07 343.78 436.049C344.307 437.228 344.897 438.559 345.632 440.21L345.646 440.203ZM356.853 173.818C354.585 179.123 352.817 183.617 350.743 187.965C349.564 190.448 349.377 192.293 351.638 194.366C354.169 196.696 356.263 199.505 358.559 202.099C362.671 206.738 366.797 211.371 370.806 215.885C380.286 212.376 387.887 206.988 391.902 201.599C393.955 198.846 394.1 196.107 392.575 193.381C391.416 191.315 389.87 189.29 388.039 187.813C378.809 180.385 367.803 176.932 356.853 173.811V173.818ZM331.422 87.152C331.263 89.9329 331.103 92.3255 330.985 94.725C330.666 101.549 332.58 106.611 339.827 109.281C346.367 111.688 349.28 117.777 348.642 124.795C348.267 128.873 346.728 132.562 344.134 135.662C342.033 138.165 339.647 140.454 337.206 142.638C332.573 146.792 332.15 147.084 335.292 152.112C340.452 160.371 339.848 168.832 337.275 177.563C336.755 179.317 336.263 181.086 335.743 182.917C338.6 184.456 340.965 185.739 343.739 187.23C345.202 184.234 346.52 181.641 347.754 179.012C349.148 176.03 348.926 173.416 347.421 170.205C345.563 166.238 344.46 161.668 344.169 157.278C343.773 151.3 346.402 146.265 351.235 142.417C355.334 139.143 358.677 135.218 360.403 130.093C363.254 121.633 361.471 114.836 354.592 109.198C351.651 106.792 348.51 104.628 345.417 102.423C341.318 99.4962 339.12 95.6335 339.231 90.5363C339.266 89.0522 339.231 87.5751 339.231 85.9662C337.92 85.9662 337.22 85.8621 336.561 85.9869C335.042 86.2712 333.551 86.6596 331.443 87.152H331.422ZM208.258 195.33C194.201 191.453 180.809 192.244 169.089 201.551C156.475 211.565 152.73 225.573 152.168 241.156C153.77 241.399 154.769 241.655 155.767 241.683C157.986 241.753 160.206 241.704 162.619 241.704C171.718 220.213 185.893 203.805 208.258 195.33ZM332.345 161.349C330.729 158.138 329.55 155.877 328.447 153.589C325.396 147.243 326.152 143.658 331.395 138.88C333.815 136.667 336.415 134.58 338.475 132.063C344.515 124.649 342.92 117.895 334.252 113.963C328.69 111.438 325.541 107.222 324.883 101.278C324.467 97.5197 324.619 93.7055 324.46 89.9191C324.439 89.4544 324.113 89.0037 323.822 88.2824C322.317 88.6084 320.86 88.9274 319.043 89.3227C318.405 112.617 317.774 135.683 317.136 159.088C322.331 159.865 326.845 160.538 332.352 161.363L332.345 161.349ZM450.051 6.58188C414.586 18.2048 379.807 29.4464 344.682 41.1318C346.291 44.0791 347.491 46.2775 348.878 48.8226C359.96 44.946 370.716 41.638 381.104 37.4493C403.15 28.5518 425.793 21.8041 449.087 17.1369C450.849 16.7832 452.506 15.9302 454.864 15.0702C453.089 11.9356 451.674 9.45294 450.051 6.58188ZM309.896 175.26C310.735 146.89 311.561 118.81 312.407 90.2104C308.239 90.9177 304.868 91.4864 301.117 92.1244C301.117 94.2742 301.061 96.1535 301.124 98.0329C301.352 104.961 301.651 111.889 301.872 118.824C302.372 134.767 302.947 150.704 303.259 166.647C303.343 171.058 304.972 173.797 309.896 175.26ZM296.685 166.46C295.915 141.633 295.173 117.735 294.41 93.1993C291.144 93.8026 288.516 94.2881 285.867 94.7735C285.672 95.8346 285.444 96.4934 285.451 97.1522C285.582 115.675 285.631 134.199 285.964 152.722C286.082 159.345 290.61 162.986 296.692 166.453L296.685 166.46ZM278.668 155.295V95.9386C274.736 96.6182 271.421 97.1938 268.009 97.7832C267.933 99.0385 267.829 99.8776 267.829 100.717C267.85 112.804 267.85 124.899 267.947 136.986C267.974 140.607 268.183 144.24 268.529 147.847C268.633 148.908 269.244 150.315 270.076 150.829C272.669 152.431 275.478 153.679 278.661 155.295H278.668ZM294.14 58.1363C285.159 59.7382 209.166 85.1478 206.309 87.471C207.564 89.4475 209.312 88.643 210.935 88.2477C222.509 85.4113 234.104 82.6512 245.644 79.6831C259.861 76.0284 274.063 72.2973 288.218 68.386C294.938 66.5344 294.875 66.3125 294.514 59.4608C294.494 59.1279 294.334 58.802 294.14 58.1363ZM268.814 514.046C272.323 515.502 272.364 515.565 275.062 513.803C285.111 507.243 291.449 497.756 294.41 486.452C296.99 476.583 297.739 466.347 296.11 456.056C295.728 453.643 296.117 450.862 296.97 448.546C299.584 441.479 298.183 435.265 293.592 429.634C290.444 425.771 286.657 425.154 281.255 427.401C281.976 428.039 282.579 428.594 283.204 429.128C289.716 434.738 293.752 441.382 292.607 450.432C292.351 452.443 292.711 454.565 293.003 456.604C295.603 474.787 290.208 490.842 279.701 505.384C277.746 508.096 274.59 509.961 271.927 512.139C271.054 512.853 269.986 513.332 268.807 514.039L268.814 514.046ZM40.7096 337.032C31.8398 332.822 23.3515 329.507 14.1904 328.516C11.9504 328.273 9.34985 329.063 7.2763 330.104C3.37193 332.059 3.06678 336.248 6.49958 338.918C8.10155 340.166 10.0156 341.248 11.9643 341.768C17.7966 343.336 23.6982 344.619 29.5929 345.929C30.3627 346.103 31.5347 346.082 32.0271 345.624C34.8843 342.968 37.5889 340.159 40.7166 337.032H40.7096ZM252.78 100.342C252.78 101.979 252.766 102.998 252.78 104.018C252.967 115.259 253.224 126.508 253.328 137.749C253.376 143.436 253.245 143.45 258.619 145.523C259.375 145.815 260.221 145.87 261.053 146.037C262.586 130.551 262.149 104.413 260.166 99.1426C257.905 99.5101 255.561 99.8915 252.773 100.342H252.78ZM313.53 51.2707C308.197 53.0252 303.683 54.5093 299.085 56.0211C299.473 61.784 299.834 66.9922 300.215 72.6164C303.891 71.9229 306.9 71.2918 309.938 70.8063C312.441 70.4041 313.489 68.8577 313.516 66.5275C313.572 61.7147 313.53 56.9018 313.53 51.2637V51.2707ZM241.192 102.554C238.661 114.822 238.973 126.473 239.597 138.45C241.899 139.115 244.07 139.747 246.982 140.593C246.559 127.069 246.164 114.476 245.755 101.487C243.64 101.986 242.336 102.291 241.192 102.554ZM78.6784 351.068C79.1431 361.235 77.2984 370.167 70.3218 377.351C75.0514 380.604 77.77 380.666 79.9891 377.157C84.0183 370.798 85.3637 363.717 84.1432 356.283C83.7132 353.682 82.3956 351.463 78.6854 351.068H78.6784ZM316.866 165.669V178.402C321.006 179.026 324.876 179.602 328.967 180.219C330.673 176.439 332.449 172.833 332.254 168.215C327.247 167.389 322.407 166.585 316.866 165.669ZM222.467 133.547C223.75 129.788 224.576 126.21 226.171 123.019C227.807 119.753 230.207 116.868 231.885 114.386C229.604 111.071 227.689 108.29 225.484 105.093C224.187 105.301 222.384 105.592 220.38 105.918C220.644 106.951 220.657 107.7 221.004 108.234C223.66 112.319 223.501 116.23 220.838 120.315C218.792 123.449 218.542 127.097 218.639 130.787C218.709 133.401 220.006 134.053 222.461 133.547H222.467ZM335.743 65.7785C339.252 65.0087 341.859 64.4332 344.606 63.8298C345.07 55.8824 343.447 49.1209 338.725 42.9765C336.492 43.7879 334.619 44.4675 332.601 45.1956C334.668 51.9364 337.234 58.053 335.743 65.7785ZM31.3128 350.915C23.3168 353.017 21.3126 356.616 25.0852 361.464C29.4334 359.009 33.851 357.85 38.7054 360.479C42.2977 362.427 43.6847 361.332 44.2673 356.408C39.2256 356.443 34.1353 356.394 31.3128 350.908V350.915ZM335.396 388.343C333.544 398.413 326.651 397.352 319.654 395.757C320.188 399.654 320.756 400.722 323.031 401.111C326.72 401.735 330.507 401.61 333.177 398.628C335.639 395.882 337.518 392.657 335.389 388.343H335.396ZM319.966 57.5399C323.454 56.3193 326.263 55.3345 329.418 54.225C328.447 51.5134 327.67 49.3566 326.79 46.9016C324.189 47.817 322.136 48.5314 319.966 49.2942V57.5329V57.5399ZM320.139 68.5525C321.984 68.2889 323.835 68.1642 325.611 67.7481C329.099 66.9228 329.21 66.5969 328.364 62.2764C320.347 63.5802 319.945 63.8714 320.139 68.5525ZM232.114 127.701C229.243 132.056 229.18 133.54 232.114 136.085V127.701ZM245.082 456.056C245.901 453.795 245.265 452.226 243.175 451.347C243.869 453.067 244.368 454.295 245.082 456.056ZM211.011 407.192C212.384 408.325 213.554 408.251 214.52 406.971C213.161 407.054 212.086 407.123 211.011 407.192Z" fill="#274991"/>
<path d="M191.378 323.273C192.883 324.306 194.18 325.145 195.421 326.067C196.669 326.99 198.278 328.099 196.933 329.722C196.461 330.298 194.45 329.958 193.327 329.542C191.891 329.015 190.726 327.732 189.284 327.267C188.396 326.983 187.002 327.364 186.253 327.967C185.879 328.266 186.135 330.048 186.669 330.617C187.834 331.851 189.36 332.76 190.754 333.772C192.037 334.708 193.604 335.686 192.439 337.496C191.427 339.07 189.991 338.072 188.757 337.468C188.292 337.239 187.807 337.059 187.099 336.754C186.385 337.871 185.664 338.994 184.963 340.09C191.052 348.543 200.754 348.758 205.636 340.638C205.539 340.326 205.518 339.944 205.331 339.701C204.291 338.363 201.247 337.836 202.904 335.402C204.208 333.488 205.962 335.402 207.557 335.769C209.541 336.22 211.635 336.165 213.632 336.56C214.527 336.74 215.304 337.489 216.136 337.981C215.435 338.807 214.881 339.923 213.986 340.381C212.98 340.901 211.663 340.825 210.962 341.622C208.008 344.681 205.054 347.739 202.155 350.735C202.564 351.13 203.757 351.761 203.903 352.58C204.027 353.259 203.091 354.584 202.328 354.896C197.737 356.754 193.14 356.22 188.736 354.23C188.091 353.939 187.911 352.607 187.515 351.754C188.382 351.387 189.284 350.631 190.102 350.714C192.467 350.957 194.797 351.539 197.314 351.311C195.969 350.943 194.568 350.721 193.299 350.187C190.303 348.918 187.023 347.961 184.499 346.026C181.669 343.855 179.492 340.936 175.546 340.464C174.88 340.388 174.401 338.744 173.84 337.822C174.706 337.441 175.684 336.588 176.412 336.768C179.29 337.447 181.829 337.489 184.18 334.382C177.494 334.778 174.498 330.52 172.231 325.769C168.833 318.64 167.057 310.942 167.342 303.106C167.619 295.526 168.694 287.925 170.046 280.442C170.705 276.795 172.349 273.14 174.304 269.95C177.689 264.43 184.304 263.195 188.195 270.428C192.238 277.953 193.778 286.018 194.048 294.423C194.305 302.412 194.104 310.36 192.023 318.155C191.593 319.784 191.586 321.525 191.378 323.252V323.273ZM184.547 322.621C185.893 322.184 186.378 322.177 186.503 321.962C186.919 321.234 187.321 320.464 187.529 319.659C189.943 310.159 190.574 300.519 189.721 290.775C189.152 284.333 187.779 278.098 184.436 272.46C183.833 271.448 182.82 270.685 182.002 269.804C182.425 272.474 184.027 274.548 184.207 276.739C184.381 278.861 183.077 281.108 182.349 283.556C182.959 283.986 183.569 284.68 184.318 284.908C187.085 285.748 187.446 287.724 187.238 290.207C186.51 298.834 185.858 307.468 185.164 316.095C185.005 318.12 184.79 320.145 184.554 322.614L184.547 322.621Z" fill="#274991"/>
<path d="M224.236 298.633C224.347 306.636 223.584 314.542 220.789 322.08C219.728 324.944 218.23 327.809 216.289 330.139C212.814 334.314 208.258 334.182 204.811 329.945C203.209 327.982 201.857 325.61 201.087 323.204C196.018 307.247 196.198 291.241 201.476 275.374C202.322 272.828 203.903 270.36 205.685 268.328C208.903 264.645 213.265 264.541 216.504 268.182C218.397 270.311 219.805 273.036 220.838 275.72C223.674 283.071 224.382 290.811 224.236 298.64V298.633ZM215.803 320.686C215.97 320.811 216.129 320.943 216.296 321.068C216.573 320.638 216.927 320.243 217.114 319.778C217.433 318.987 217.683 318.155 217.911 317.33C220.706 307.17 220.72 296.851 219.243 286.539C218.688 282.655 217.377 278.855 216.108 275.117C215.616 273.668 214.298 272.503 213.355 271.213C213.022 271.358 212.696 271.504 212.363 271.65C215.415 275.491 214.451 279.278 212.114 282.697C216.081 285.582 216.136 285.568 216.996 290.034C218.543 298.065 218.959 306.102 217.052 314.154C216.538 316.31 216.212 318.509 215.796 320.686H215.803Z" fill="#274991"/>
<path d="M208.563 257.259C213.813 257.078 217.481 259.284 220.685 262.328C221.226 262.841 221.025 264.131 221.171 265.061C220.228 265.172 219.264 265.449 218.355 265.331C217.745 265.255 217.183 264.637 216.628 264.228C213.903 262.203 210.956 260.976 207.453 261.427C206.094 261.6 204.256 261.69 204.395 259.776C204.458 258.909 206.073 258.049 207.121 257.404C207.641 257.085 208.473 257.259 208.57 257.252L208.563 257.259Z" fill="#274991"/>
<path d="M191.254 258.273C189.319 259.604 188.674 260.429 188.015 260.436C183.285 260.499 179.36 262.239 175.969 265.499C175.449 265.998 174.18 265.714 173.257 265.79C173.202 264.847 172.793 263.737 173.146 262.995C174.998 259.139 184.152 255.346 188.043 256.712C188.972 257.038 189.825 257.572 191.254 258.266V258.273Z" fill="#274991"/>
<path d="M340.701 419.752C338.711 415.785 336.852 412.186 335.132 408.524C334.931 408.101 335.347 407.096 335.777 406.763C336.2 406.437 337.116 406.409 337.65 406.638C340.361 407.796 343.628 414.932 342.698 417.768C342.476 418.434 341.603 418.885 340.701 419.752Z" fill="#274991"/>
<path d="M331.741 421.728C330.66 418.004 329.64 414.78 328.822 411.506C328.433 409.939 329.973 408.719 331.298 409.481C334.023 411.056 334.051 413.982 334.619 416.617C335.091 418.802 334.821 420.633 331.741 421.728Z" fill="#274991"/>
<path d="M341.734 403.398C344.536 403.204 349.689 407.982 349.515 410.049C349.391 411.54 348.219 412.4 347.019 411.498C344.848 409.869 342.865 407.941 341.055 405.916C340.708 405.527 341.526 404.099 341.734 403.398Z" fill="#274991"/>
</svg>
